<svg width="64" height="64" viewBox="0 0 64 64" fill="none" xmlns="http://www.w3.org/2000/svg">
<path d="M24.1602 13.0571C30.4458 13.0571 34.9317 14.4975 37.6162 17.3784C40.3661 20.2593 41.7402 25.0067 41.7402 31.6196V53.6196C41.7403 55.5181 42.461 56.4672 43.9014 56.4672C44.4252 56.4672 44.9167 56.3366 45.375 56.0747C45.8332 55.7473 46.324 55.158 46.8477 54.3071L49.5 56.0747C48.3215 58.6936 46.7825 60.5924 44.8838 61.771C43.0505 62.884 40.6603 63.4409 37.7139 63.4409C32.0176 63.4409 28.4161 61.0836 26.9102 56.3696C24.8151 58.5955 22.7854 60.3629 20.8213 61.6723C18.9225 62.9163 16.2708 63.5385 12.8662 63.5385C9.06865 63.5385 5.95872 62.458 3.53613 60.2973C1.17901 58.1366 0 55.0267 0 50.9672C3.18774e-05 48.6102 0.523711 46.4822 1.57129 44.5835C2.6189 42.6847 4.51764 40.9166 7.26758 39.2797C10.0175 37.6429 13.9136 36.105 18.9551 34.6645C19.9372 34.3371 21.0831 34.0095 22.3926 33.6821C23.702 33.3547 25.0441 33.027 26.4189 32.6997V29.4585C26.4189 25.0717 25.8631 22.0923 24.75 20.521C23.7024 18.9496 21.6066 18.1645 18.4639 18.1645H17.1875C16.7947 18.1645 16.3362 18.1967 15.8125 18.2622L15.3213 22.5835C15.2558 25.7918 14.503 28.1166 13.0625 29.5571C11.6875 30.9975 10.0502 31.7172 8.15137 31.7172C4.55045 31.7171 2.35699 30.0807 1.57129 26.8071C1.83319 22.7476 3.89573 19.4407 7.75879 16.8872C11.6218 14.3337 17.089 13.0571 24.1602 13.0571ZM26.4189 36.9233C25.568 37.1851 24.7171 37.4798 23.8662 37.8071C23.0807 38.0689 22.3929 38.3304 21.8037 38.5922C19.5776 39.5089 17.8095 40.8187 16.5 42.521C15.1906 44.1578 14.5352 46.1221 14.5352 48.4135C14.5352 50.8361 15.092 52.6373 16.2051 53.8159C17.3836 54.9944 18.7918 55.5835 20.4287 55.5835C21.1488 55.5834 21.9019 55.4196 22.6875 55.0922C23.4732 54.7648 24.7169 54.0118 26.4189 52.8335V36.9233ZM52.7012 0.114709C53.0728 -0.0192374 53.4768 -0.0363582 53.8584 0.0658814C54.2399 0.168171 54.5811 0.385126 54.8359 0.686975C55.0908 0.988865 55.2473 1.36193 55.2842 1.75533L55.9932 9.89205L62.6826 14.5737C63.0092 14.799 63.2579 15.1207 63.3936 15.4936C63.5291 15.8666 63.5452 16.2731 63.4395 16.6557C63.3396 17.0398 63.1222 17.383 62.8184 17.6381C62.5143 17.8934 62.1379 18.0479 61.7422 18.0796L53.6074 18.7895L48.9268 25.4819C48.6981 25.8042 48.3756 26.0491 48.0039 26.1831C47.6323 26.317 47.2282 26.3341 46.8467 26.2319C46.4651 26.1296 46.124 25.9127 45.8691 25.6108C45.6142 25.3089 45.4578 24.9359 45.4209 24.5424L44.7139 16.4057L38.0234 11.7241C37.7012 11.4954 37.4562 11.173 37.3223 10.8012C37.1885 10.4296 37.1712 10.0256 37.2734 9.64401C37.3757 9.26239 37.5928 8.92144 37.8945 8.66647C38.1964 8.41145 38.5695 8.25423 38.9629 8.21725L47.0977 7.50826L51.7783 0.815881C52.007 0.493572 52.3295 0.248728 52.7012 0.114709Z" fill="#FE3D03"/>
</svg>
